<?xml version="1.0" standalone="no"?>
<!DOCTYPE svg PUBLIC "-//W3C//DTD SVG 20010904//EN"
 "http://www.w3.org/TR/2001/REC-SVG-20010904/DTD/svg10.dtd">
<svg version="1.0" xmlns="http://www.w3.org/2000/svg"
 width="600.000000pt" height="600.000000pt" viewBox="0 0 600.000000 600.000000"
 preserveAspectRatio="xMidYMid meet">
<metadata>
Created by potrace 1.14, written by Peter Selinger 2001-2017
</metadata>
<g transform="translate(0.000000,600.000000) scale(0.100000,-0.100000)"
fill="#000000" stroke="none">
<path d="M110 5689 c0 -149 3 -198 13 -201 6 -2 209 -3 450 -2 l437 0 0 -50
c1 -28 1 -1153 1 -2500 1 -1621 -2 -2451 -9 -2455 -6 -3 -209 -6 -451 -5
l-441 1 0 -199 0 -198 218 0 c254 0 2228 0 2572 0 l235 0 -2 147 c-1 82 -2
171 -2 199 l-1 51 -447 -1 c-247 -1 -455 2 -463 5 -13 6 -15 134 -15 1082 0
592 2 1078 5 1080 3 3 293 8 645 12 1136 11 1294 17 1534 61 197 36 484 151
685 276 275 170 521 418 629 633 53 105 121 317 134 415 2 19 8 50 13 68 13
51 9 248 -7 337 -54 299 -229 628 -443 835 -236 227 -429 343 -750 447 -189
61 -329 94 -505 117 -132 18 -466 23 -1935 31 -630 4 -1360 8 -1622 9 l-478 3
0 -198z m3310 -213 c163 -8 297 -20 355 -33 11 -2 31 -6 45 -9 217 -43 391
-136 528 -282 164 -176 213 -381 215 -897 0 -157 -9 -358 -18 -407 -3 -11 -7
-46 -11 -77 -3 -31 -17 -94 -31 -141 -64 -225 -179 -360 -405 -479 -184 -96
-355 -131 -723 -147 -171 -8 -1194 -13 -1212 -6 -10 3 -13 261 -13 1242 0 982
3 1239 13 1243 16 6 1100 0 1257 -7z"/>
</g>
</svg>
